<svg width="313" height="184" viewBox="0 0 313 184" fill="none" xmlns="http://www.w3.org/2000/svg">
<g filter="url(#filter0_d_222_168)">
<g filter="url(#filter1_d_222_168)">
<path d="M42.5151 77.3151C42.4947 77.0684 41.9501 72.7239 40.8814 64.2815L37.97 65.0091L37.1193 61.5118L36.1281 58.037L40.0015 57.7316C39.7739 56.0761 39.5712 54.6954 39.3934 53.5895L37.812 44.47L44.4573 43.2864L58.2696 40.5757C58.9251 42.7393 59.5318 44.4204 60.0898 45.6189C60.6478 46.8175 60.9362 47.4153 60.9549 47.4123C55.1082 48.1214 50.5466 48.6913 47.2701 49.1218C45.9146 49.3013 45.0448 49.393 44.6609 49.3971C44.6626 49.6468 44.7143 50.148 44.8161 50.9008C45.1174 52.7751 45.48 54.8512 45.9038 57.1289L47.3422 56.9265C49.1416 56.6372 52.8261 55.8142 58.3957 54.4574C58.8305 56.4449 59.2686 58.1531 59.7098 59.5819C60.0616 60.8137 60.2469 61.428 60.2656 61.425C54.5514 61.8821 50.7384 62.2643 48.8266 62.5717C48.3205 62.653 47.7143 62.7697 47.0081 62.9217L48.2816 69.4083C50.0053 69.2466 51.8325 69.0106 53.7631 68.7002C56.5934 68.2452 59.1339 67.7215 61.3845 67.129L64.7322 66.2447C64.7135 66.2477 64.6644 66.8997 64.5852 68.2008C64.5059 69.5018 64.5128 71.2793 64.606 73.5332C60.335 73.7583 56.6813 74.1149 53.6449 74.603C50.4209 75.1213 47.0959 75.8481 43.6699 76.7834L42.5151 77.3151Z" fill="#BEC4CB"/>
<path d="M83.3037 71.9384L81.3268 67.4261C79.9211 64.3127 78.8566 62.06 78.1333 60.6678C77.5309 59.5108 76.267 57.356 74.3415 54.2034L71.7379 49.9878L73.3478 48.9832C74.562 48.2028 75.4958 47.5673 76.1493 47.0766L77.6874 45.9366L78.2589 47.2496C78.975 48.929 80.0392 51.2677 81.4515 54.2658C82.5721 56.6843 83.9554 59.2368 85.6014 61.9232C86.2065 60.101 86.6818 58.5794 87.0272 57.3582C87.4068 55.9232 87.9655 53.4951 88.7034 50.0738L89.6295 45.391L90.6541 45.5953C91.3371 45.7316 92.1742 45.8798 93.1654 46.04C94.1754 46.1982 95.0283 46.3161 95.7241 46.3937L96.7709 46.5384L95.1216 51.1561C94.0451 54.2704 93.2706 56.6454 92.7981 58.2813C92.4527 59.5025 91.9044 61.9391 91.1533 65.591L90.1292 70.4276L89.5568 70.4322C89.1773 70.4541 88.6195 70.5048 87.8834 70.5843C86.9397 70.6863 85.9799 70.9046 85.004 71.2392L83.3037 71.9384Z" fill="#BEC4CB"/>
<path d="M120.753 61.6678C121.776 61.6114 122.824 61.3065 123.897 60.7531C125.041 60.1386 125.929 59.3292 126.558 58.3248C127.257 57.2215 127.571 56.0159 127.499 54.708L127.518 54.0225L127.463 53.5407C127.416 52.6876 127.053 51.7855 126.373 50.8343C125.712 49.882 124.747 49.1081 123.479 48.5126C122.35 48.0424 121.255 47.8366 120.193 47.8951L119.993 47.8776C118.877 47.9771 117.82 48.292 116.822 48.8223C115.696 49.4358 114.818 50.2352 114.188 51.2205C113.485 52.267 113.171 53.4726 113.246 54.8374L113.191 54.869L113.248 54.8658C113.215 54.9627 113.208 55.1817 113.227 55.5229C113.327 57.3427 114.114 58.8489 115.587 60.0416C117.059 61.2344 118.781 61.7764 120.753 61.6678ZM121.014 67.4429C117.848 67.6174 115.017 66.9653 112.521 65.4867C110.616 64.3749 109.079 62.8909 107.912 61.0349C106.822 59.1937 106.236 57.5243 106.153 56.0268C105.994 53.1266 106.787 50.44 108.533 47.9672C109.911 46.066 111.684 44.5899 113.85 43.5388C115.667 42.6972 117.495 42.2257 119.334 42.1244C124.129 41.8601 127.977 43.1882 130.875 46.1086C132.324 47.5499 133.353 49.1473 133.963 50.9009C134.347 52.0015 134.551 52.7793 134.576 53.2343C134.681 55.1298 134.419 56.9315 133.79 58.6393C132.997 60.7935 131.663 62.6352 129.788 64.1645C127.332 66.1631 124.407 67.256 121.014 67.4429Z" fill="#BEC4CB"/>
<path d="M145.237 66.5054L145.328 64.6247C145.622 57.6343 145.751 52.7534 145.717 49.9819C145.683 47.2104 145.435 42.4765 144.972 35.7802L144.836 33.9592L145.86 33.8611C146.543 33.7768 147.386 33.662 148.39 33.5167C149.414 33.3522 150.266 33.1993 150.948 33.058L151.971 32.846L151.708 39.257C151.537 43.8727 151.463 47.1391 151.487 49.0564C151.511 50.9927 151.665 54.2753 151.95 58.9043L152.371 65.3638C152.219 65.3657 151.584 65.44 150.466 65.5866C149.366 65.7141 148.258 65.8891 147.14 66.1118C145.871 66.3552 145.237 66.4865 145.237 66.5054Z" fill="#BEC4CB"/>
<path d="M171.333 67.8814L169.98 63.1444C169.005 59.8704 168.253 57.4951 167.724 56.0184C167.282 54.791 166.319 52.4859 164.834 49.1032L162.821 44.5761L164.551 43.7969C165.859 43.1867 166.87 42.6823 167.583 42.2839L169.26 41.3608L169.65 42.7387C170.134 44.4991 170.875 46.9595 171.872 50.1201C172.657 52.6673 173.685 55.3825 174.955 58.2656C175.8 56.5413 176.475 55.0973 176.981 53.9335C177.55 52.5626 178.43 50.2315 179.621 46.9403L181.168 42.4244L182.156 42.7645C182.814 42.9913 183.624 43.2506 184.584 43.5426C185.564 43.835 186.393 44.0664 187.072 44.2367L188.09 44.5207L185.836 48.8751C184.35 51.8164 183.264 54.0659 182.576 55.6236C182.07 56.7873 181.199 59.1281 179.964 62.646L178.3 67.3012L177.732 67.2289C177.353 67.1996 176.793 67.1749 176.053 67.1548C175.104 67.1291 174.124 67.2165 173.112 67.4169L171.333 67.8814Z" fill="#BEC4CB"/>
<path d="M196.856 67.5811C196.875 67.5824 197.106 65.971 197.549 62.747C198.028 59.2781 198.317 56.7953 198.417 55.2989C198.518 53.7835 198.557 51.3412 198.534 47.972C198.515 44.8314 198.496 43.2604 198.477 43.2592L199.589 43.2762C200.313 43.2673 201.218 43.2421 202.305 43.2004C203.393 43.1587 204.309 43.1151 205.054 43.0696L206.172 43.0014C206.153 43.0001 205.923 44.5926 205.482 47.7787C205.007 51.1908 204.722 53.6167 204.626 55.0563C204.53 56.4959 204.49 58.9572 204.505 62.44C204.516 65.6943 204.532 67.3221 204.551 67.3234C204.38 67.312 203.695 67.3139 202.495 67.3291C201.297 67.3253 200.096 67.3594 198.892 67.4314L196.856 67.5811ZM203.811 40.304L203.976 39.9726C204.321 39.3677 204.661 38.8291 204.997 38.3568C205.334 37.8655 205.762 37.4469 206.279 37.1009C206.797 36.7548 207.391 36.4139 208.06 36.0779L208.414 35.9018L206.903 34.6023L202.747 31.0147C202.745 31.0337 202.52 31.4182 202.07 32.1683C201.622 32.8995 201.255 33.4078 200.97 33.6932C200.684 33.9786 200.156 34.343 199.384 34.7862C198.614 35.2106 198.21 35.4215 198.172 35.4189L203.811 40.304Z" fill="#BEC4CB"/>
<path d="M232.189 70.9295L232.55 68.6484C233.047 65.2842 233.522 61.9462 233.975 58.6345C234.092 57.7305 234.217 56.837 234.351 55.954C234.508 54.5007 234.399 53.3909 234.023 52.6247C233.829 52.2983 233.582 52.0233 233.282 51.7999C232.515 51.297 231.273 50.9527 229.555 50.7672C228.895 50.6958 228.192 50.744 227.449 50.9119C226.387 51.1981 225.609 51.6775 225.117 52.3498C224.853 52.6651 224.675 52.9895 224.582 53.3232C224.251 54.9678 224.058 56.0544 224 56.5829C223.819 58.2627 223.604 62.3735 223.355 68.9153L221.471 68.8549C220.331 68.8081 218.552 68.8355 216.135 68.9371C217.263 62.7386 217.936 58.6296 218.154 56.61C218.373 54.5904 218.581 50.5457 218.778 44.4758C220.946 44.5572 223.352 44.5594 225.995 44.4822L225.938 45.278C227.092 45.0208 228.44 44.9182 229.981 44.9701C230.963 45.0762 231.706 45.1756 232.212 45.2684C233.934 45.5882 235.444 46.1905 236.742 47.0755C237.822 47.8605 238.642 48.7606 239.2 49.7757C240.328 51.7115 240.738 54.1044 240.43 56.9545L239.399 70.7347C237.965 70.7516 236.856 70.7654 236.072 70.7762C235.29 70.7681 234.467 70.7842 233.604 70.8245L232.189 70.9295Z" fill="#BEC4CB"/>
<path d="M257.005 83.4009L255.66 83.1547C255.607 83.1269 255.543 83.1069 255.468 83.0948C255.412 83.0857 255.366 83.0688 255.332 83.044C255.313 83.0409 255.266 83.0334 255.191 83.0213C253.297 82.369 251.074 81.0675 248.524 79.117C248.593 79.0511 249.204 78.0056 250.358 75.9806C250.528 75.6427 251.13 74.5958 252.164 72.8397C252.34 73.0605 252.907 73.5945 253.866 74.4418C254.891 75.3574 255.962 76.1074 257.08 76.6918C257.189 76.7287 257.278 76.772 257.347 76.8216C257.497 76.8458 257.663 76.8918 257.844 76.9596C258.191 77.0733 258.692 77.1832 259.348 77.2892C262.422 77.7859 264.592 77.0308 265.859 75.024C264.446 75.1995 263.074 75.1797 261.743 74.9647C259.279 74.5087 257.157 73.4736 255.38 71.8595C254.204 70.8041 253.281 69.6742 252.61 68.4696C251.464 66.3998 250.893 64.4613 250.896 62.6542L250.868 61.7555L251.022 61.6939L250.882 61.6711L251.007 60.5376C251.338 58.4948 252.18 56.554 253.535 54.7153C254.418 53.5312 255.559 52.4847 256.956 51.5758C259.74 49.8142 262.755 49.1861 266 49.6913C266.769 49.8154 267.998 50.0622 269.689 50.4315L269.693 50.4033L276.771 51.2298C274.632 61.7302 273.221 69.0311 272.539 73.1324L272.379 73.9431C271.383 78.2051 269.177 81.0889 265.76 82.5946C263.316 83.6803 260.397 83.949 257.005 83.4009ZM263.863 69.1631C265.094 69.285 266.259 69.0982 267.358 68.6028C267.521 67.5908 268.063 63.4668 268.982 56.2307L267.553 55.9709L265.356 55.6447C263.723 55.5155 262.276 55.8394 261.016 56.6165C259.38 57.6982 258.415 59.148 258.121 60.9659L258.103 61.0784L257.864 61.1264L258.089 61.1627C258.061 61.2159 258.019 61.4206 257.961 61.7766C257.807 62.7324 257.882 63.6965 258.186 64.6687C258.743 66.3358 259.794 67.5727 261.336 68.3797C261.972 68.7324 262.711 68.9769 263.554 69.1131L263.863 69.1631Z" fill="#BEC4CB"/>
</g>
<path d="M104.504 133.509C104.896 133.463 105.23 133.579 105.507 133.855C105.806 134.131 105.956 134.466 105.956 134.857C105.956 135.249 105.806 135.571 105.507 135.825C105.23 136.101 104.896 136.228 104.504 136.205C103.836 136.136 103.249 136.078 102.742 136.032C102.258 136.009 101.786 135.998 101.325 135.998C100.887 135.998 100.415 136.009 99.9079 136.032C99.4011 136.078 98.8135 136.136 98.1454 136.205C97.7537 136.228 97.4196 136.101 97.1431 135.825C96.8667 135.571 96.7284 135.249 96.7284 134.857C96.7284 134.466 96.8667 134.131 97.1431 133.855C97.4196 133.579 97.7537 133.463 98.1454 133.509C98.4449 133.532 98.7559 133.555 99.0785 133.579C99.4011 133.602 99.7236 133.636 100.046 133.682C100.254 133.682 100.357 133.579 100.357 133.371V114.743C100.357 114.582 100.311 114.501 100.219 114.501C100.127 114.478 100.058 114.536 100.012 114.674L92.5121 132.023C92.3739 132.323 92.155 132.576 91.8555 132.784C91.579 132.991 91.2679 133.095 90.9223 133.095C90.5998 133.095 90.2887 132.991 89.9892 132.784C89.6897 132.576 89.4823 132.323 89.3671 132.023L82.386 114.536C82.363 114.398 82.3054 114.329 82.2132 114.329C82.098 114.329 82.0404 114.421 82.0404 114.605V133.371C82.0404 133.579 82.1441 133.682 82.3515 133.682C82.674 133.636 82.9966 133.602 83.3191 133.579C83.6417 133.555 83.9527 133.532 84.2523 133.509C84.6439 133.463 84.978 133.579 85.2545 133.855C85.531 134.131 85.6692 134.466 85.6692 134.857C85.6692 135.249 85.531 135.571 85.2545 135.825C84.978 136.101 84.6439 136.228 84.2523 136.205C83.5841 136.136 82.9966 136.078 82.4897 136.032C82.0059 136.009 81.5335 135.998 81.0727 135.998C80.6119 135.998 80.1281 136.009 79.6212 136.032C79.1374 136.078 78.5614 136.136 77.8932 136.205C77.5015 136.228 77.1559 136.101 76.8564 135.825C76.5799 135.571 76.4417 135.249 76.4417 134.857C76.4417 134.466 76.5799 134.131 76.8564 133.855C77.1559 133.579 77.5015 133.463 77.8932 133.509L79.0337 133.613H79.1028C79.2641 133.613 79.3447 133.521 79.3447 133.337V113.223C79.3447 112.992 79.2411 112.9 79.0337 112.946C78.8263 112.946 78.619 112.958 78.4116 112.981C78.2273 113.004 78.0315 113.015 77.8241 113.015C77.4555 113.015 77.1444 112.889 76.891 112.635C76.6375 112.359 76.5108 112.036 76.5108 111.667C76.5108 111.276 76.6606 110.953 76.9601 110.7C77.2596 110.423 77.6052 110.308 77.9969 110.354C78.7572 110.446 79.3908 110.515 79.8977 110.562C80.4046 110.608 80.9345 110.631 81.4875 110.631C82.0865 110.631 82.6395 110.803 83.1463 111.149C83.6532 111.495 84.0219 111.955 84.2523 112.531L90.7841 129.155C90.8532 129.293 90.9223 129.362 90.9915 129.362C91.1067 129.362 91.1758 129.293 91.1988 129.155L98.2145 112.497C98.4449 111.944 98.8135 111.495 99.3204 111.149C99.8503 110.803 100.415 110.631 101.014 110.631C101.59 110.631 102.12 110.608 102.604 110.562C103.087 110.515 103.687 110.446 104.401 110.354C104.792 110.308 105.138 110.423 105.438 110.7C105.737 110.976 105.887 111.31 105.887 111.702C105.887 112.094 105.737 112.428 105.438 112.704C105.138 112.958 104.792 113.061 104.401 113.015L103.364 112.912H103.295C103.134 112.912 103.053 113.004 103.053 113.188V133.337C103.053 133.567 103.168 133.659 103.399 133.613L104.504 133.509ZM130.946 117.923C131.291 117.877 131.591 117.98 131.844 118.234C132.098 118.464 132.224 118.764 132.224 119.132C132.224 119.478 132.098 119.778 131.844 120.031C131.591 120.261 131.291 120.365 130.946 120.342L130.323 120.273H130.254C130.139 120.273 130.035 120.342 129.943 120.48L121.442 139.419C119.806 142.806 117.744 144.499 115.255 144.499C114.472 144.499 113.746 144.315 113.078 143.947C112.433 143.601 111.914 143.129 111.523 142.53C111.131 141.954 110.935 141.32 110.935 140.629C110.935 139.891 111.143 139.281 111.557 138.797C111.972 138.336 112.502 138.106 113.147 138.106C113.7 138.106 114.161 138.302 114.53 138.693C114.921 139.108 115.117 139.592 115.117 140.145C115.117 140.467 115.059 140.744 114.944 140.974C114.852 141.228 114.725 141.412 114.564 141.527C114.38 141.689 114.357 141.827 114.495 141.942C114.748 142.126 115.013 142.219 115.29 142.219C116.764 142.219 117.986 141.136 118.953 138.97L120.197 136.136C120.243 135.998 120.243 135.859 120.197 135.721L113.493 120.446C113.401 120.307 113.297 120.238 113.182 120.238C113.02 120.238 112.859 120.261 112.698 120.307C112.537 120.331 112.364 120.342 112.179 120.342C111.857 120.342 111.58 120.227 111.35 119.996C111.12 119.743 111.004 119.455 111.004 119.132C111.004 118.764 111.131 118.464 111.385 118.234C111.638 117.98 111.938 117.877 112.283 117.923C112.951 117.969 113.493 118.003 113.907 118.027C114.345 118.05 114.76 118.061 115.152 118.061C115.543 118.061 115.958 118.05 116.396 118.027C116.834 118.003 117.375 117.969 118.02 117.923C118.366 117.877 118.665 117.98 118.919 118.234C119.172 118.464 119.299 118.764 119.299 119.132C119.299 119.478 119.172 119.778 118.919 120.031C118.665 120.261 118.366 120.365 118.02 120.342C117.79 120.296 117.536 120.273 117.26 120.273C116.983 120.25 116.707 120.227 116.43 120.204H116.361C116.131 120.204 116.073 120.319 116.188 120.549L121.442 132.473C121.511 132.611 121.58 132.68 121.649 132.68C121.764 132.68 121.833 132.611 121.856 132.473L127.178 120.515C127.202 120.469 127.213 120.411 127.213 120.342C127.213 120.227 127.144 120.169 127.006 120.169C126.706 120.169 126.395 120.192 126.073 120.238C125.773 120.261 125.485 120.296 125.209 120.342C124.863 120.365 124.563 120.261 124.31 120.031C124.057 119.778 123.93 119.478 123.93 119.132C123.93 118.764 124.057 118.464 124.31 118.234C124.563 117.98 124.863 117.877 125.209 117.923C125.877 117.969 126.418 118.003 126.833 118.027C127.271 118.05 127.685 118.061 128.077 118.061C128.469 118.061 128.883 118.05 129.321 118.027C129.759 118.003 130.3 117.969 130.946 117.923ZM140.89 123.072C140.89 123.648 141.166 124.098 141.719 124.42C142.295 124.743 143.021 125.008 143.897 125.215C144.795 125.422 145.74 125.641 146.731 125.872C147.721 126.102 148.654 126.402 149.53 126.77C150.428 127.139 151.154 127.657 151.707 128.325C152.283 128.971 152.571 129.846 152.571 130.952C152.571 131.897 152.272 132.772 151.673 133.579C151.097 134.362 150.233 134.995 149.081 135.479C147.952 135.94 146.558 136.171 144.899 136.171C144.023 136.171 143.125 136.067 142.203 135.859C141.305 135.652 140.475 135.364 139.715 134.995C138.955 134.604 138.344 134.155 137.883 133.648C137.422 133.118 137.192 132.53 137.192 131.885C137.192 131.332 137.388 130.86 137.779 130.468C138.171 130.076 138.632 129.881 139.162 129.881C139.761 129.881 140.233 130.088 140.579 130.503C140.947 130.894 141.132 131.355 141.132 131.885C141.132 131.977 141.12 132.069 141.097 132.162C141.097 132.231 141.086 132.311 141.063 132.403C141.04 132.427 141.028 132.473 141.028 132.542C141.028 132.657 141.097 132.749 141.235 132.818C141.742 133.026 142.307 133.221 142.929 133.406C143.551 133.59 144.208 133.682 144.899 133.682C145.797 133.682 146.627 133.579 147.387 133.371C148.171 133.141 148.793 132.818 149.253 132.403C149.737 131.989 149.979 131.47 149.979 130.848C149.979 130.203 149.691 129.708 149.115 129.362C148.562 128.994 147.836 128.706 146.938 128.498C146.062 128.268 145.129 128.049 144.139 127.842C143.148 127.611 142.203 127.323 141.305 126.978C140.429 126.609 139.703 126.125 139.127 125.526C138.574 124.904 138.298 124.086 138.298 123.072C138.298 122.151 138.551 121.31 139.058 120.549C139.588 119.766 140.371 119.144 141.408 118.683C142.468 118.199 143.781 117.957 145.348 117.957C146.408 117.957 147.41 118.096 148.355 118.372C149.323 118.649 150.106 119.052 150.705 119.582C151.327 120.112 151.638 120.745 151.638 121.483C151.638 121.552 151.638 121.632 151.638 121.724C151.638 121.794 151.627 121.863 151.603 121.932C151.534 122.393 151.315 122.784 150.947 123.107C150.578 123.406 150.152 123.556 149.668 123.556C149.092 123.556 148.62 123.36 148.251 122.969C147.883 122.577 147.698 122.116 147.698 121.586C147.698 121.517 147.698 121.448 147.698 121.379C147.698 121.287 147.71 121.206 147.733 121.137C147.756 121.114 147.767 121.068 147.767 120.999C147.767 120.86 147.698 120.78 147.56 120.757C146.984 120.503 146.247 120.377 145.348 120.377C144.657 120.377 143.966 120.48 143.275 120.688C142.583 120.872 142.007 121.16 141.547 121.552C141.109 121.943 140.89 122.45 140.89 123.072ZM169.151 130.226C169.542 130.226 169.877 130.364 170.153 130.641C170.43 130.917 170.545 131.251 170.499 131.643C170.153 134.684 168.644 136.205 165.971 136.205C165.096 136.205 164.324 135.998 163.656 135.583C163.011 135.168 162.504 134.627 162.135 133.959C161.766 133.267 161.582 132.519 161.582 131.712V120.86C161.582 120.653 161.478 120.549 161.271 120.549H159.198C158.875 120.549 158.587 120.434 158.334 120.204C158.103 119.95 157.988 119.662 157.988 119.34C157.988 119.017 158.103 118.741 158.334 118.51C158.587 118.28 158.875 118.165 159.198 118.165H161.271C161.478 118.165 161.582 118.061 161.582 117.854V111.944C161.582 111.575 161.709 111.264 161.962 111.011C162.216 110.757 162.527 110.631 162.895 110.631C163.241 110.631 163.541 110.757 163.794 111.011C164.047 111.264 164.174 111.575 164.174 111.944V117.854C164.174 118.061 164.278 118.165 164.485 118.165H168.667C168.99 118.165 169.266 118.28 169.496 118.51C169.727 118.741 169.842 119.017 169.842 119.34C169.842 119.662 169.727 119.95 169.496 120.204C169.266 120.434 168.99 120.549 168.667 120.549H164.485C164.278 120.549 164.174 120.653 164.174 120.86V131.712C164.174 131.781 164.197 131.977 164.243 132.3C164.312 132.599 164.474 132.899 164.727 133.198C164.981 133.475 165.395 133.613 165.971 133.613C166.639 133.613 167.112 133.429 167.388 133.06C167.665 132.691 167.849 132.127 167.941 131.367C167.987 131.044 168.126 130.779 168.356 130.572C168.586 130.341 168.851 130.226 169.151 130.226ZM191.264 128.187H179.168C178.938 128.187 178.846 128.302 178.892 128.533C179.099 129.547 179.502 130.445 180.101 131.228C180.7 132.012 181.438 132.622 182.313 133.06C183.189 133.498 184.133 133.717 185.147 133.717C186.022 133.717 186.852 133.532 187.635 133.164C188.442 132.772 189.133 132.254 189.709 131.609C190.054 131.263 190.423 131.09 190.815 131.09C191.068 131.09 191.31 131.171 191.541 131.332C191.909 131.586 192.094 131.931 192.094 132.369C192.094 132.668 192.001 132.91 191.817 133.095C190.988 134.062 189.985 134.823 188.81 135.376C187.658 135.906 186.437 136.171 185.147 136.171C183.488 136.171 181.979 135.756 180.62 134.926C179.283 134.097 178.212 132.991 177.406 131.609C176.622 130.226 176.23 128.706 176.23 127.047C176.23 125.365 176.599 123.833 177.336 122.45C178.074 121.068 179.087 119.962 180.378 119.132C181.691 118.303 183.166 117.888 184.801 117.888C186.414 117.888 187.82 118.234 189.018 118.925C190.216 119.616 191.172 120.584 191.886 121.828C192.623 123.049 193.073 124.478 193.234 126.114C193.303 126.69 193.13 127.185 192.716 127.6C192.324 127.991 191.84 128.187 191.264 128.187ZM184.801 120.204C183.189 120.204 181.864 120.676 180.827 121.621C179.79 122.565 179.145 123.81 178.892 125.353C178.892 125.376 178.88 125.399 178.857 125.422C178.857 125.422 178.857 125.434 178.857 125.457C178.857 125.618 178.961 125.699 179.168 125.699H190.262C190.515 125.699 190.607 125.584 190.538 125.353C190.262 123.74 189.651 122.485 188.707 121.586C187.785 120.665 186.483 120.204 184.801 120.204ZM213.819 119.063C213.957 119.363 214.026 119.651 214.026 119.927C214.026 120.457 213.83 120.907 213.438 121.275C213.047 121.644 212.586 121.828 212.056 121.828C211.664 121.828 211.307 121.724 210.985 121.517C210.685 121.287 210.443 121.01 210.259 120.688C210.19 120.526 210.063 120.446 209.879 120.446C209.049 120.515 208.254 120.86 207.494 121.483C206.757 122.082 206.1 122.842 205.524 123.763C204.948 124.685 204.487 125.676 204.142 126.736C204.096 126.828 204.073 126.955 204.073 127.116V133.613C204.073 133.797 204.153 133.89 204.315 133.89C204.591 133.89 204.856 133.878 205.109 133.855C205.386 133.809 205.662 133.786 205.939 133.786C206.261 133.786 206.538 133.901 206.768 134.131C206.999 134.362 207.114 134.65 207.114 134.995C207.114 135.341 206.987 135.629 206.734 135.859C206.48 136.113 206.169 136.228 205.801 136.205C205.086 136.136 204.51 136.078 204.073 136.032C203.635 136.009 203.209 135.998 202.794 135.998C202.31 135.998 201.849 136.009 201.411 136.032C200.997 136.078 200.455 136.136 199.787 136.205C199.419 136.228 199.107 136.113 198.854 135.859C198.601 135.629 198.474 135.341 198.474 134.995C198.474 134.65 198.589 134.362 198.819 134.131C199.05 133.901 199.326 133.786 199.649 133.786C199.879 133.786 200.121 133.797 200.375 133.82C200.651 133.843 200.916 133.867 201.17 133.89H201.239C201.4 133.89 201.481 133.797 201.481 133.613V120.757C201.481 120.572 201.4 120.48 201.239 120.48C200.732 120.48 200.248 120.515 199.787 120.584C199.395 120.607 199.05 120.492 198.75 120.238C198.474 119.962 198.336 119.628 198.336 119.236C198.336 118.844 198.474 118.522 198.75 118.268C199.05 117.992 199.395 117.877 199.787 117.923C200.271 117.969 200.64 118.003 200.893 118.027C201.17 118.05 201.435 118.061 201.688 118.061C201.964 118.061 202.333 118.061 202.794 118.061C203.163 118.061 203.462 118.188 203.692 118.441C203.946 118.695 204.073 118.994 204.073 119.34V121.344C204.073 121.483 204.107 121.575 204.176 121.621C204.268 121.644 204.361 121.598 204.453 121.483C205.144 120.469 205.962 119.628 206.907 118.96C207.874 118.291 209.003 117.877 210.293 117.715C210.432 117.692 210.57 117.681 210.708 117.681C210.846 117.658 210.985 117.646 211.123 117.646C211.722 117.646 212.263 117.75 212.747 117.957C213.254 118.165 213.611 118.533 213.819 119.063ZM237.548 117.923C237.894 117.877 238.193 117.98 238.447 118.234C238.7 118.464 238.827 118.764 238.827 119.132C238.827 119.478 238.7 119.778 238.447 120.031C238.193 120.261 237.894 120.365 237.548 120.342L236.926 120.273H236.857C236.742 120.273 236.638 120.342 236.546 120.48L228.044 139.419C226.408 142.806 224.346 144.499 221.858 144.499C221.075 144.499 220.349 144.315 219.681 143.947C219.036 143.601 218.517 143.129 218.126 142.53C217.734 141.954 217.538 141.32 217.538 140.629C217.538 139.891 217.745 139.281 218.16 138.797C218.575 138.336 219.105 138.106 219.75 138.106C220.303 138.106 220.764 138.302 221.132 138.693C221.524 139.108 221.72 139.592 221.72 140.145C221.72 140.467 221.662 140.744 221.547 140.974C221.455 141.228 221.328 141.412 221.167 141.527C220.983 141.689 220.959 141.827 221.098 141.942C221.351 142.126 221.616 142.219 221.893 142.219C223.367 142.219 224.588 141.136 225.556 138.97L226.8 136.136C226.846 135.998 226.846 135.859 226.8 135.721L220.095 120.446C220.003 120.307 219.9 120.238 219.784 120.238C219.623 120.238 219.462 120.261 219.301 120.307C219.139 120.331 218.967 120.342 218.782 120.342C218.46 120.342 218.183 120.227 217.953 119.996C217.722 119.743 217.607 119.455 217.607 119.132C217.607 118.764 217.734 118.464 217.987 118.234C218.241 117.98 218.54 117.877 218.886 117.923C219.554 117.969 220.095 118.003 220.51 118.027C220.948 118.05 221.363 118.061 221.754 118.061C222.146 118.061 222.561 118.05 222.999 118.027C223.436 118.003 223.978 117.969 224.623 117.923C224.968 117.877 225.268 117.98 225.521 118.234C225.775 118.464 225.902 118.764 225.902 119.132C225.902 119.478 225.775 119.778 225.521 120.031C225.268 120.261 224.968 120.365 224.623 120.342C224.392 120.296 224.139 120.273 223.863 120.273C223.586 120.25 223.31 120.227 223.033 120.204H222.964C222.734 120.204 222.676 120.319 222.791 120.549L228.044 132.473C228.113 132.611 228.183 132.68 228.252 132.68C228.367 132.68 228.436 132.611 228.459 132.473L233.781 120.515C233.804 120.469 233.816 120.411 233.816 120.342C233.816 120.227 233.747 120.169 233.608 120.169C233.309 120.169 232.998 120.192 232.675 120.238C232.376 120.261 232.088 120.296 231.811 120.342C231.466 120.365 231.166 120.261 230.913 120.031C230.659 119.778 230.533 119.478 230.533 119.132C230.533 118.764 230.659 118.464 230.913 118.234C231.166 117.98 231.466 117.877 231.811 117.923C232.479 117.969 233.021 118.003 233.436 118.027C233.873 118.05 234.288 118.061 234.68 118.061C235.071 118.061 235.486 118.05 235.924 118.027C236.362 118.003 236.903 117.969 237.548 117.923Z" fill="#BEC4CB"/>
</g>
<defs>
<filter id="filter0_d_222_168" x="-2.78664" y="-12.24" width="322.367" height="196.703" filterUnits="userSpaceOnUse" color-interpolation-filters="sRGB">
<feFlood flood-opacity="0" result="BackgroundImageFix"/>
<feColorMatrix in="SourceAlpha" type="matrix" values="0 0 0 0 0 0 0 0 0 0 0 0 0 0 0 0 0 0 127 0" result="hardAlpha"/>
<feOffset dx="1.08" dy="4.32"/>
<feGaussianBlur stdDeviation="17.28"/>
<feComposite in2="hardAlpha" operator="out"/>
<feColorMatrix type="matrix" values="0 0 0 0 0 0 0 0 0 0 0 0 0 0 0 0 0 0 0.25 0"/>
<feBlend mode="normal" in2="BackgroundImageFix" result="effect1_dropShadow_222_168"/>
<feBlend mode="normal" in="SourceGraphic" in2="effect1_dropShadow_222_168" result="shape"/>
</filter>
<filter id="filter1_d_222_168" x="29.6292" y="30.7305" width="251.461" height="63.6044" filterUnits="userSpaceOnUse" color-interpolation-filters="sRGB">
<feFlood flood-opacity="0" result="BackgroundImageFix"/>
<feColorMatrix in="SourceAlpha" type="matrix" values="0 0 0 0 0 0 0 0 0 0 0 0 0 0 0 0 0 0 127 0" result="hardAlpha"/>
<feOffset dy="4.32"/>
<feGaussianBlur stdDeviation="2.16"/>
<feComposite in2="hardAlpha" operator="out"/>
<feColorMatrix type="matrix" values="0 0 0 0 0 0 0 0 0 0 0 0 0 0 0 0 0 0 0.2 0"/>
<feBlend mode="normal" in2="BackgroundImageFix" result="effect1_dropShadow_222_168"/>
<feBlend mode="normal" in="SourceGraphic" in2="effect1_dropShadow_222_168" result="shape"/>
</filter>
</defs>
</svg>
