<svg width="16" height="16" viewBox="0 0 16 16" fill="none" xmlns="http://www.w3.org/2000/svg">
<path opacity="0.4" d="M14.027 4.79301L8.0003 8.27967L1.97363 4.79301C2.2403 4.29967 2.62697 3.86634 3.0603 3.62634L6.6203 1.65301C7.3803 1.22634 8.6203 1.22634 9.3803 1.65301L12.9403 3.62634C13.3736 3.86634 13.7603 4.29967 14.027 4.79301Z" fill="#E8984E"/>
<path opacity="0.6" d="M8.00042 8.27964V14.6663C7.50042 14.6663 7.00042 14.5596 6.62042 14.3463L3.06042 12.373C2.25375 11.9263 1.59375 10.8063 1.59375 9.8863V6.11297C1.59375 5.6863 1.74042 5.21964 1.97375 4.79297L8.00042 8.27964Z" fill="#E8984E"/>
<path d="M14.4076 6.11297V9.8863C14.4076 10.8063 13.7476 11.9263 12.941 12.373L9.38098 14.3463C9.00098 14.5596 8.50098 14.6663 8.00098 14.6663V8.27964L14.0276 4.79297C14.261 5.21964 14.4076 5.6863 14.4076 6.11297Z" fill="#E8984E"/>
</svg>
